<svg xmlns="http://www.w3.org/2000/svg" viewBox="0 0 829.5 236.729" enable-background="new 0 0 829.5 236.729" xml:space="preserve">
<g>
	<g>
		<g>
			<path fill="#FFFFFF" d="M692.014,226.602c-3.313,5.295-11.134,9.627-17.382,9.627H7.324c-6.246,0-8.647-4.332-5.332-9.627
				L137.481,10.128c3.315-5.295,11.139-9.627,17.384-9.627h667.313c6.245,0,8.645,4.332,5.329,9.627L692.014,226.602z"/>
            <path fill="none" stroke="#4D4D4D" stroke-width="1.0017" d="M692.014,226.602c-3.313,5.295-11.134,9.627-17.382,9.627H7.324
				c-6.246,0-8.647-4.332-5.332-9.627L137.481,10.128c3.315-5.295,11.139-9.627,17.384-9.627h667.313
				c6.245,0,8.645,4.332,5.329,9.627L692.014,226.602z"/>
		</g>
        <g>
			<g>
				<g>
					<path d="M324.019,62.888l-0.513,2.908c-0.084-0.022-0.324-0.036-0.723-0.036c-0.402,0-0.747,0.153-1.029,0.462
						c-0.284,0.314-0.622,0.973-0.999,1.986c-1.295,3.562-3.621,5.715-6.981,6.472c1.622,0.632,2.826,1.554,3.61,2.764
						c0.786,1.213,1.178,2.874,1.178,4.996c0,1.011,0.09,1.672,0.281,1.968c0.184,0.3,0.5,0.447,0.959,0.447
						c0.27,0,0.528-0.023,0.786-0.068l-0.552,3.006c-0.178,0.047-0.575,0.071-1.186,0.071c-1.284,0-2.207-0.335-2.763-1
						c-0.562-0.663-0.837-1.842-0.837-3.529c0-2.517-0.465-4.355-1.396-5.515c-0.934-1.169-2.627-1.753-5.076-1.753h-0.32
						l-2.027,11.628h-3.41l4.319-24.743h3.409l-1.774,10.242h0.198c2.324,0,4.151-0.488,5.485-1.459
						c1.333-0.978,2.396-2.6,3.189-4.876c0.523-1.453,1.146-2.493,1.859-3.12c0.713-0.624,1.783-0.94,3.21-0.94
						C323.305,62.8,323.673,62.829,324.019,62.888z"/>
                    <path d="M323.95,94.786v-3.109c1.542,0,2.815-0.196,3.818-0.597c1.003-0.4,1.877-1.505,2.628-3.315
						c-1.674-0.097-2.761-1.65-3.263-4.668l-2.227-13.498h3.533l1.892,13.11c0.177,1.381,0.646,2.078,1.405,2.078l6.479-15.188
						h3.595l-8.823,19.752c-0.934,2.093-2.045,3.523-3.332,4.289C328.377,94.407,326.476,94.786,323.95,94.786z"/>
                    <path d="M344.607,86.802l-1.406,8.09h-3.146l3.497-19.91c0.155-0.877,0.237-1.736,0.237-2.582c0-0.843-0.082-1.667-0.237-2.466
						l3.184-0.578c0.074,0.141,0.181,0.907,0.316,2.316c0.478-0.631,1.203-1.172,2.18-1.629c0.981-0.458,1.916-0.687,2.825-0.687
						c4.45,0,6.678,2.239,6.678,6.711c0,2.387-0.463,4.5-1.392,6.328c-0.922,1.83-2.129,3.248-3.606,4.235
						c-1.479,0.992-3.227,1.481-5.246,1.481c-0.589,0-1.325-0.125-2.214-0.387C345.399,87.471,344.84,87.157,344.607,86.802z
						 M345.091,84.128c0.183,0.338,0.582,0.637,1.198,0.895c0.623,0.262,1.201,0.389,1.753,0.389c2.32,0,4.114-0.787,5.393-2.357
						c1.268-1.57,1.899-3.766,1.899-6.58c0-2.952-1.484-4.426-4.452-4.426c-0.296,0-0.633,0.055-1.003,0.167
						c-0.354,0.102-0.735,0.256-1.141,0.456c-0.239,0.125-0.494,0.27-0.746,0.44c-0.214,0.135-0.405,0.274-0.574,0.42
						c-0.167,0.148-0.315,0.293-0.449,0.439c-0.103,0.111-0.279,0.904-0.534,2.381L345.091,84.128z"/>
                    <path d="M374.75,70.188l-0.583,2.737c-0.824-0.656-1.902-0.981-3.23-0.981c-2.035,0-3.686,0.821-4.965,2.449
						c-1.275,1.637-1.913,3.653-1.913,6.065c0,0.906,0.158,1.692,0.474,2.376c0.317,0.68,0.798,1.255,1.439,1.733
						c0.643,0.47,1.349,0.71,2.117,0.71c1.632,0,3.184-0.497,4.67-1.486l-0.383,3.243c-1.462,0.664-3.06,0.996-4.788,0.996
						c-2.174,0-3.864-0.625-5.066-1.874c-1.198-1.252-1.795-2.961-1.795-5.138c0-3.458,0.939-6.289,2.82-8.481
						c1.878-2.195,4.263-3.293,7.153-3.293C372.409,69.244,373.753,69.554,374.75,70.188z"/>
                    <path d="M382.499,69.599l-2.141,11.84c-0.036,0.191-0.052,0.544-0.052,1.069c0,1.888,0.956,2.833,2.879,2.833
						c1.171,0,2.318-0.451,3.438-1.349c1.124-0.903,1.806-2.041,2.056-3.43l1.971-10.962h3.364l-3.299,18.097h-3.312l0.43-2.572
						c-1.221,1.937-3.38,2.906-6.476,2.906c-1.382,0-2.472-0.419-3.257-1.256c-0.8-0.842-1.189-2.022-1.189-3.545
						c0-0.526,0.04-1.053,0.13-1.568l2.126-12.062H382.499z"/>
                    <path d="M422.733,70.729l-2.174,10.478c-0.146,0.685-0.215,1.336-0.215,1.96c0,1.462,0.34,2.972,1.021,4.529h-3.247
						c-0.426-0.697-0.71-1.494-0.857-2.385c-0.745,0.913-1.581,1.591-2.497,2.043c-0.923,0.451-1.93,0.677-3.028,0.677
						c-1.633,0-2.975-0.512-4.021-1.536c-1.047-1.025-1.567-2.55-1.567-4.577c0-3.383,0.991-6.343,2.97-8.893
						c1.982-2.543,4.468-3.818,7.459-3.818C419.322,69.206,421.371,69.713,422.733,70.729z M419.203,72.605
						c-0.331-0.509-1.34-0.762-3.011-0.762c-1.754,0-3.301,0.953-4.654,2.85c-1.349,1.895-2.021,4.269-2.021,7.123
						c0,2.354,1.007,3.525,3.044,3.525c0.898,0,1.759-0.239,2.558-0.732c0.806-0.492,1.351-0.985,1.636-1.493
						c0.282-0.507,0.563-1.435,0.841-2.792L419.203,72.605z"/>
                    <path d="M442.184,69.599l-3.2,18.097h-3.242l1.438-8.166h-8.067l-1.44,8.166h-3.252l3.15-18.097h3.262l-1.271,7.262h8.052
						l1.27-7.262H442.184z"/>
                    <path d="M445.949,70.595c2.142-0.906,4.225-1.352,6.243-1.352c1.886,0,3.326,0.398,4.324,1.198
						c1.001,0.799,1.499,1.902,1.499,3.311c0,1.092-0.325,2.036-0.973,2.839c-0.647,0.799-1.992,1.583-4.034,2.349
						c-1.366,0.505-2.527,0.945-3.479,1.326c-0.95,0.375-1.626,0.78-2.024,1.217c-0.402,0.433-0.604,0.981-0.604,1.648
						c0,1.475,0.969,2.209,2.917,2.209c2.036,0,4.052-0.643,6.038-1.939l-0.388,3.4c-2.144,0.82-4.153,1.229-6.058,1.229
						c-1.905,0-3.387-0.419-4.433-1.268c-1.048-0.844-1.576-2.025-1.576-3.533c0-2.428,1.669-4.244,5.005-5.438
						c2.711-0.967,4.417-1.66,5.123-2.068c0.706-0.417,1.053-1.012,1.053-1.802c0-0.588-0.24-1.063-0.717-1.427
						c-0.485-0.368-1.158-0.55-2.029-0.55c-1.325,0-2.852,0.496-4.584,1.488L445.949,70.595z"/>
                    <path d="M477.649,69.599l-3.182,18.097h-3.231l2.71-15.394h-5.033c-0.773,3.526-1.521,6.232-2.246,8.123
						c-0.726,1.893-1.524,3.402-2.399,4.525c-0.875,1.119-1.816,1.895-2.824,2.331c-1.002,0.433-2.146,0.648-3.428,0.648h-0.229
						l0.602-3.005c1.947,0,3.526-1.25,4.726-3.737c1.195-2.488,2.321-6.355,3.374-11.588H477.649z"/>
                    <path d="M480.676,87.696l2.716-15.394h-2.38l0.586-2.64h5.49l-3.166,18.034H480.676z M485.817,62.498
						c0.603,0,1.122,0.212,1.563,0.645c0.44,0.429,0.661,0.962,0.661,1.604c0,0.64-0.217,1.172-0.644,1.584
						c-0.431,0.424-0.957,0.628-1.581,0.628c-0.658,0-1.19-0.214-1.608-0.652c-0.412-0.433-0.622-0.951-0.622-1.56
						c0-0.607,0.213-1.137,0.644-1.58C484.65,62.723,485.18,62.498,485.817,62.498z"/>
                    <path d="M495.554,69.599l-2.143,11.84c-0.03,0.191-0.047,0.544-0.047,1.069c0,1.888,0.961,2.833,2.876,2.833
						c1.178,0,2.321-0.451,3.438-1.349c1.122-0.903,1.809-2.041,2.053-3.43l1.976-10.962h3.365l-3.298,18.097h-3.313l0.438-2.572
						c-1.23,1.937-3.388,2.906-6.484,2.906c-1.379,0-2.469-0.419-3.262-1.256c-0.79-0.842-1.182-2.022-1.182-3.545
						c0-0.526,0.043-1.053,0.127-1.568l2.129-12.062H495.554z M506.321,62.045c-0.829,3.296-2.932,4.946-6.311,4.946
						c-1.518,0-2.729-0.393-3.625-1.189c-0.898-0.797-1.349-1.85-1.349-3.168c0-0.305,0.043-0.734,0.134-1.286l2.813,0.253
						c-0.094,0.387-0.132,0.72-0.132,1.001c0,0.659,0.233,1.186,0.697,1.564c0.472,0.388,1.106,0.58,1.912,0.58
						c1.827,0,2.921-1.154,3.276-3.465L506.321,62.045z"/>
                    <path d="M522.938,70.188l-0.587,2.737c-0.825-0.656-1.897-0.981-3.231-0.981c-2.029,0-3.684,0.821-4.963,2.449
						c-1.278,1.637-1.91,3.653-1.91,6.065c0,0.906,0.158,1.692,0.472,2.376c0.323,0.68,0.8,1.255,1.438,1.733
						c0.643,0.47,1.347,0.71,2.12,0.71c1.624,0,3.186-0.497,4.669-1.486l-0.386,3.243c-1.462,0.664-3.058,0.996-4.788,0.996
						c-2.17,0-3.863-0.625-5.063-1.874c-1.199-1.252-1.795-2.961-1.795-5.138c0-3.458,0.938-6.289,2.817-8.481
						c1.882-2.195,4.269-3.293,7.155-3.293C520.59,69.244,521.949,69.554,522.938,70.188z"/>
                    <path d="M529.48,76.861c1.629-0.526,3.128-0.793,4.489-0.793c1.917,0,3.416,0.487,4.489,1.459c1.081,0.978,1.62,2.308,1.62,4
						c0,1.981-0.749,3.56-2.245,4.735c-1.495,1.18-3.604,1.768-6.324,1.768c-1.206,0-2.488-0.148-3.833-0.45
						c-1.357-0.296-2.432-0.679-3.231-1.138l3.212-16.843h3.231L529.48,76.861z M528.01,84.518c0.173,0.247,0.643,0.461,1.398,0.652
						c0.749,0.18,1.549,0.276,2.397,0.276c1.384,0,2.56-0.315,3.525-0.947c0.966-0.628,1.449-1.561,1.449-2.79
						c0-1.999-1.2-3.006-3.6-3.006c-1.149,0-2.547,0.244-4.184,0.727L528.01,84.518z"/>
                    <path d="M559.757,69.497l-0.518,2.768c-0.114-0.021-0.331-0.035-0.653-0.035c-0.267,0-0.498,0.065-0.678,0.197
						c-0.185,0.126-0.368,0.429-0.56,0.9c-1.061,2.747-2.85,4.391-5.377,4.915c2.313,0.917,3.543,2.785,3.701,5.616
						c0.039,0.507,0.13,0.833,0.277,0.981c0.149,0.147,0.39,0.218,0.715,0.218c0.186,0,0.402-0.027,0.649-0.066l-0.537,2.804
						c-0.355,0.047-0.71,0.071-1.065,0.071c-2.081,0-3.121-1.146-3.121-3.436c0-1.609-0.422-2.837-1.271-3.686
						c-0.847-0.857-2.073-1.278-3.664-1.278h-0.284l-1.438,8.23h-3.251l3.146-18.097h3.271l-1.278,7.228h0.304
						c1.685,0,3.034-0.358,4.047-1.082c1.019-0.721,1.805-1.859,2.365-3.413c0.375-1.035,0.849-1.777,1.401-2.227
						c0.559-0.45,1.429-0.677,2.616-0.677C558.848,69.429,559.245,69.452,559.757,69.497z"/>
                    <path d="M560.78,81.055c0-1.986,0.403-3.889,1.187-5.715c0.795-1.824,1.962-3.295,3.507-4.416
						c1.546-1.124,3.296-1.681,5.247-1.681c2.152,0,3.81,0.589,4.972,1.771c1.161,1.184,1.744,2.878,1.744,5.085
						c0,3.205-0.912,5.987-2.725,8.366s-4.24,3.564-7.292,3.564c-2.126,0-3.764-0.602-4.916-1.807
						C561.356,85.018,560.78,83.292,560.78,81.055z M564.111,80.832c0,3.051,1.269,4.579,3.796,4.579
						c1.887,0,3.39-0.945,4.505-2.829c1.119-1.891,1.676-4,1.676-6.348c0-2.907-1.275-4.358-3.817-4.358
						c-1.865,0-3.357,0.924-4.479,2.765C564.669,76.48,564.111,78.545,564.111,80.832z"/>
                    <path d="M581.65,62.888c0.546,0,1.005,0.178,1.357,0.533c0.354,0.355,0.54,0.799,0.54,1.327c0,0.564-0.195,1.02-0.574,1.375
						c-0.381,0.354-0.823,0.532-1.323,0.532s-0.939-0.178-1.312-0.532c-0.374-0.355-0.561-0.811-0.561-1.375
						c0-0.541,0.18-0.987,0.543-1.34C580.684,63.065,581.128,62.888,581.65,62.888z M580.597,87.696l2.709-15.394h-2.373l0.585-2.64
						h5.487l-3.159,18.034H580.597z M588.348,62.888c0.521,0,0.966,0.178,1.327,0.52c0.366,0.353,0.542,0.799,0.542,1.34
						c0,0.564-0.185,1.02-0.555,1.375c-0.377,0.354-0.814,0.532-1.314,0.532c-0.537,0-0.992-0.184-1.347-0.546
						c-0.366-0.365-0.548-0.823-0.548-1.361c0-0.527,0.175-0.972,0.53-1.327C587.334,63.065,587.792,62.888,588.348,62.888z"/>
                    <path d="M617.802,87.696l0.104-10.834l-7.721,11.133h-0.818l-3.534-11.2l-4.316,10.901h-3.333l7.69-18.452h0.849l4.147,13.197
						l9.124-13.197h0.888l0.231,18.452H617.802z"/>
                    <path d="M624.815,81.055c0-1.986,0.398-3.889,1.188-5.715c0.789-1.824,1.96-3.295,3.511-4.416
						c1.54-1.124,3.29-1.681,5.245-1.681c2.15,0,3.805,0.589,4.966,1.771c1.161,1.184,1.743,2.878,1.743,5.085
						c0,3.205-0.907,5.987-2.72,8.366c-1.814,2.379-4.242,3.564-7.287,3.564c-2.134,0-3.772-0.602-4.925-1.807
						C625.391,85.018,624.815,83.292,624.815,81.055z M628.148,80.832c0,3.051,1.265,4.579,3.792,4.579
						c1.893,0,3.394-0.945,4.507-2.829c1.115-1.891,1.672-4,1.672-6.348c0-2.907-1.268-4.358-3.816-4.358
						c-1.86,0-3.354,0.924-4.48,2.765C628.707,76.48,628.148,78.545,628.148,80.832z"/>
                    <path d="M659.443,73.752c0,1.104-0.392,2.085-1.169,2.937c-0.782,0.862-1.835,1.434-3.164,1.729
						c1.204,0.281,2.12,0.764,2.759,1.451c0.637,0.687,0.959,1.514,0.959,2.467c0,1.592-0.733,2.943-2.204,4.062
						c-1.469,1.126-3.641,1.683-6.519,1.683c-1.094,0-2.307-0.15-3.63-0.448c-1.332-0.299-2.202-0.565-2.625-0.792
						c-0.415-0.229-0.625-0.474-0.625-0.735c0-0.133,0.274-1.664,0.818-4.591c0.682-3.564,1.092-5.585,1.24-6.07
						c0.35-1.137,0.814-2.115,1.401-2.921c0.581-0.812,1.248-1.47,1.997-1.959c0.749-0.5,1.542-0.863,2.385-1.084
						c0.84-0.229,1.726-0.335,2.65-0.335c1.763,0,3.159,0.432,4.184,1.291C658.932,71.291,659.443,72.4,659.443,73.752z
						 M646.503,84.619c0.192,0.279,0.68,0.527,1.475,0.722c0.793,0.205,1.65,0.307,2.577,0.307c1.521,0,2.748-0.293,3.688-0.871
						c0.946-0.577,1.423-1.405,1.423-2.472c0-0.799-0.321-1.456-0.962-1.954c-0.635-0.498-1.615-0.753-2.94-0.753h-4.354
						L646.503,84.619z M647.777,77.387h3.129c3.646,0,5.475-1.12,5.475-3.363c0-0.71-0.242-1.298-0.729-1.759
						c-0.48-0.461-1.213-0.692-2.185-0.692C650.297,71.573,648.403,73.51,647.777,77.387z"/>
                    <path d="M668.047,69.599l-2.146,11.84c-0.03,0.191-0.046,0.544-0.046,1.069c0,1.888,0.96,2.833,2.883,2.833
						c1.167,0,2.315-0.451,3.435-1.349c1.117-0.903,1.807-2.041,2.051-3.43l1.973-10.962h3.365l-3.293,18.097h-3.316l0.436-2.572
						c-1.226,1.937-3.387,2.906-6.475,2.906c-1.385,0-2.476-0.419-3.271-1.256c-0.788-0.842-1.185-2.022-1.185-3.545
						c0-0.526,0.046-1.053,0.135-1.568l2.124-12.062H668.047z"/>
				</g>
                <g>
					<path d="M393.919,191.034l1.653-3.045c0.436,0.442,1.061,0.844,1.875,1.213c0.815,0.366,1.509,0.553,2.092,0.553
						c0.997,0,1.815-0.274,2.464-0.817c0.646-0.543,0.966-1.271,0.966-2.199c0-0.468-0.166-0.894-0.507-1.265
						c-0.343-0.371-0.932-0.799-1.767-1.283l-2.362-1.319c-0.723-0.417-1.269-0.943-1.631-1.582
						c-0.364-0.632-0.545-1.312-0.545-2.034c0-1.673,0.647-3.025,1.946-4.047c1.289-1.02,2.883-1.528,4.765-1.528
						c1.306,0,2.878,0.414,4.722,1.25l-1.423,2.975c-1.094-1.016-2.268-1.522-3.529-1.522c-0.84,0-1.561,0.219-2.165,0.654
						c-0.61,0.429-0.915,1-0.915,1.711c0,0.518,0.169,0.965,0.512,1.338c0.351,0.373,0.946,0.788,1.796,1.25l2.338,1.282
						c0.727,0.4,1.271,0.903,1.626,1.522c0.357,0.617,0.538,1.297,0.538,2.03c0,1.935-0.698,3.469-2.084,4.591
						c-1.389,1.127-3.151,1.694-5.298,1.694C397.104,192.455,395.412,191.979,393.919,191.034z"/>
                    <path d="M409.951,192.115l2.709-15.396h-2.376l0.585-2.65h5.476l-3.162,18.046H409.951z M415.089,166.918
						c0.612,0,1.136,0.225,1.57,0.652c0.435,0.434,0.653,0.966,0.653,1.598c0,0.624-0.219,1.147-0.653,1.581
						c-0.434,0.436-0.958,0.65-1.57,0.65c-0.617,0-1.141-0.215-1.571-0.65c-0.439-0.434-0.658-0.957-0.658-1.581
						c0-0.632,0.219-1.164,0.658-1.598C413.948,167.143,414.472,166.918,415.089,166.918z"/>
                    <path d="M430.334,192.115l1.875-10.524c0.165-0.94,0.251-1.713,0.251-2.336c0-1.913-0.985-2.873-2.958-2.873
						c-0.769,0-1.574,0.228-2.438,0.677c-0.866,0.452-1.555,0.984-2.065,1.606l-2.328,13.45h-3.214l2.41-13.722
						c0.057-0.315,0.08-0.688,0.08-1.118c0-1.146-0.114-2.141-0.347-2.987l3.082-0.608c0.297,1.646,0.443,2.535,0.431,2.688
						c1.36-1.796,3.324-2.688,5.891-2.688c3.235,0,4.857,1.667,4.857,5c0,0.669-0.073,1.409-0.219,2.232l-1.925,11.203H430.334z"/>
                    <path d="M452.413,174.593l-0.585,2.753c-0.808-0.641-1.884-0.964-3.235-0.964c-2.053,0-3.712,0.823-4.977,2.46
						c-1.271,1.636-1.901,3.653-1.901,6.039c0,1.465,0.409,2.634,1.232,3.507c0.821,0.878,1.754,1.311,2.807,1.311
						c1.615,0,3.162-0.505,4.649-1.503l-0.351,3.276c-1.466,0.653-3.064,0.983-4.808,0.983c-2.207,0-3.902-0.641-5.089-1.923
						c-1.183-1.273-1.774-2.974-1.774-5.094c0-3.449,0.94-6.265,2.815-8.468c1.876-2.193,4.265-3.291,7.162-3.291
						C450.076,173.68,451.429,173.984,452.413,174.593z"/>
                    <path d="M457.853,183.563c-0.1,0.541-0.158,1.059-0.158,1.555c0,1.49,0.418,2.629,1.245,3.428
						c0.823,0.802,1.979,1.209,3.467,1.209c1.317,0,2.641-0.496,3.979-1.477l-0.336,3.282c-1.782,0.592-3.361,0.895-4.738,0.895
						c-4.617,0-6.93-2.616-6.93-7.846c0-3.071,0.975-5.661,2.915-7.772c1.944-2.104,4.385-3.157,7.333-3.157
						c1.773,0,3.191,0.385,4.248,1.147c1.063,0.769,1.595,1.86,1.595,3.278c0,1.975-0.83,3.528-2.482,4.665
						c-1.647,1.137-3.682,1.704-6.076,1.704C460.308,184.475,458.955,184.17,457.853,183.563z M458.403,181.234
						c0.847,0.38,1.848,0.57,2.999,0.57c1.735,0,3.16-0.278,4.269-0.854c1.103-0.567,1.652-1.395,1.652-2.49
						c0-1.385-0.95-2.079-2.846-2.079C461.584,176.382,459.559,178,458.403,181.234z"/>
                    <path d="M486.066,192.115l3.269-18.607l-4.953,2.553l0.468-3.24c3.883-1.812,6.517-3.669,7.898-5.562h1.005l-4.336,24.856
						H486.066z"/>
                    <path d="M501.968,192.535l-1.306-1.806c1.174-0.464,2.86-1.819,5.055-4.07c2.2-2.254,3.502-3.972,3.904-5.154
						c-1.063,0.889-2.426,1.333-4.102,1.333c-1.688,0-3.097-0.589-4.242-1.772c-1.146-1.182-1.718-2.685-1.718-4.496
						c0-2.896,0.78-5.227,2.335-6.996c1.559-1.767,3.67-2.655,6.334-2.655c2.019,0,3.614,0.646,4.788,1.941
						c1.174,1.288,1.759,2.988,1.759,5.104c0,4.367-1.479,8.396-4.438,12.104C507.382,189.771,504.593,191.928,501.968,192.535z
						 M511.495,173.478c0-1.091-0.301-1.979-0.918-2.661c-0.615-0.681-1.483-1.018-2.597-1.018c-1.528,0-2.725,0.596-3.602,1.788
						c-0.868,1.193-1.308,2.737-1.308,4.626c0,1.14,0.288,2.045,0.854,2.731c0.561,0.68,1.334,1.02,2.316,1.02
						c1.65,0,2.941-0.594,3.866-1.78C511.036,176.993,511.495,175.427,511.495,173.478z"/>
                    <path d="M519.945,192.535l-1.302-1.806c1.172-0.464,2.853-1.819,5.053-4.07c2.196-2.254,3.495-3.972,3.9-5.154
						c-1.063,0.889-2.43,1.333-4.102,1.333c-1.685,0-3.104-0.589-4.242-1.772c-1.148-1.182-1.716-2.685-1.716-4.496
						c0-2.896,0.777-5.227,2.333-6.996c1.559-1.767,3.664-2.655,6.336-2.655c2.023,0,3.615,0.646,4.786,1.941
						c1.172,1.288,1.763,2.988,1.763,5.104c0,4.367-1.48,8.396-4.441,12.104C525.355,189.771,522.568,191.928,519.945,192.535z
						 M529.471,173.478c0-1.091-0.305-1.979-0.92-2.661c-0.615-0.681-1.481-1.018-2.599-1.018c-1.529,0-2.727,0.596-3.598,1.788
						c-0.87,1.193-1.308,2.737-1.308,4.626c0,1.14,0.286,2.045,0.845,2.731c0.571,0.68,1.338,1.02,2.321,1.02
						c1.65,0,2.938-0.594,3.866-1.78C529.003,176.993,529.471,175.427,529.471,173.478z"/>
                    <path d="M539.767,178.342c-0.784-0.457-1.421-1.158-1.919-2.093c-0.498-0.939-0.747-1.881-0.747-2.839
						c0-1.952,0.683-3.517,2.047-4.703c1.355-1.193,3.146-1.789,5.37-1.789c1.681,0,3.114,0.471,4.29,1.404
						c1.176,0.935,1.768,2.147,1.768,3.632c0,1.436-0.45,2.797-1.345,4.097c-0.903,1.306-1.999,2.179-3.292,2.629
						c1.028,0.585,1.85,1.389,2.458,2.401c0.619,1.016,0.923,2.107,0.923,3.281c0,2.768-0.685,4.807-2.068,6.123
						c-1.375,1.312-3.578,1.97-6.597,1.97c-1.947,0-3.545-0.55-4.804-1.642c-1.253-1.094-1.879-2.513-1.879-4.258
						c0-1.892,0.498-3.546,1.507-4.961C536.48,180.182,537.911,179.102,539.767,178.342z M542.506,179.862
						c-1.217,0.288-2.369,1.035-3.463,2.261c-1.096,1.22-1.642,2.499-1.642,3.84c0,1.071,0.351,1.944,1.055,2.609
						c0.708,0.671,1.549,1.009,2.529,1.009c3.303,0,4.953-1.647,4.953-4.936c0-0.957-0.316-1.864-0.962-2.72
						C544.334,181.069,543.509,180.384,542.506,179.862z M543.529,177.01c0.895-0.233,1.713-0.818,2.46-1.738
						c0.747-0.928,1.124-1.86,1.124-2.791c0-0.768-0.312-1.408-0.934-1.915c-0.617-0.516-1.338-0.767-2.165-0.767
						c-1.083,0-1.938,0.349-2.568,1.052c-0.624,0.704-0.944,1.549-0.944,2.523c0,0.729,0.292,1.434,0.877,2.107
						C541.965,176.152,542.682,176.659,543.529,177.01z"/>
				</g>
			</g>
            <path fill="#0080C8" d="M684.018,124.438c-0.939,0.069-1.204,0.578-1.42,0.796c-0.67,0.798-2.143,2.873-7.816,8.824
				c-5.987,6.36-12.729,9.836-17.011,9.784c-3.675-0.219-4.363-1.014-4.576-4.19c0-7.686,3.331-15.049,7.701-20.446
				c4.342-5.422,9.804-8.744,13.299-8.682c1.748,0.065,1.86,0.754,1.904,1.074c-0.055,0.759-0.144,0.643-1.343,1.275
				c-1.049,0.395-2.961,1.645-2.865,4.11c0,1.152,0.303,2.363,1.126,3.331c0.825,0.979,2.15,1.557,3.701,1.537
				c4.271-0.108,6.494-4.193,6.508-7.415c0.023-2.63-1.131-4.871-3.052-6.255c-1.914-1.389-4.468-2.015-7.387-2.015
				c-8.329-0.013-16.723,4.238-24.861,13.921c-2.426,2.923-3.616,4.269-4.264,5.132c-0.113,0.102-0.228,0.21-0.304,0.317
				c-0.485,0.537-1.119,1.355-2.445,2.898c-4.359,5.277-11.165,12.532-19.042,17.203l24.233-39.727l-2.634,0.261l-9.715,0.911
				l-0.324,0.664c-2.109,4.291-8.814,13.457-15.97,21.375c-7.045,7.965-15.133,14.656-18.349,14.44
				c-0.302,0.006-0.505-0.033-0.585-0.057c-0.021-0.092-0.074-0.342-0.074-0.736c-0.149-1.642,3.091-6.28,6.511-11.184
				c3.38-5.014,6.928-10.675,6.964-16.302c-0.006-4.126-2.129-9.097-7.481-9.122c-3.923,0.038-8.767,2.644-16.847,11.782
				c-4.223,4.942-5.86,6.615-6.579,7.683c-0.901,1.02-2.625,3.201-8.119,8.841c-6.406,6.883-11.271,9.538-12.248,9.377
				c-1.191-0.205-0.852,0.067-1.07-1.075c-0.165-3.006,2.833-6.85,20.148-34.566l1.38-2.223l-10.874,0.779l-0.318,0.268
				c-4.935,4.125-11.51,11.904-14.518,15.794c-3.582,4.619-7.619,10.004-10.86,14.229c-1.616,2.107-3.039,3.936-4.087,5.211
				c-0.275,0.328-0.518,0.617-0.74,0.87c0.905-5.544,11.913-23.25,19.12-34.944l1.329-2.207l-10.864,0.779l-0.334,0.313
				c-4.66,4.279-6.434,6.358-9.091,9.472c-9.469,11.134-12.58,16.946-18.278,22.122c-3.095,2.926-6.776,5.267-8.651,5.179
				c-2.506-0.005-4.145-1.931-4.156-4.049c-0.008-1.301,0.291-2.674,0.806-3.584c0.551-0.917,1.085-1.302,1.952-1.318
				c1.151-0.044,1.749,0.507,3.501,0.563c1.794,0,4.384-1.787,4.4-5.575c0.044-3.197-2.631-4.896-5.054-5.006
				c-0.282-0.151-0.62-0.263-1.033-0.302c-0.483,0.009-0.841,0.214-1.113,0.441c-4.475,0.736-7.482,4.713-8.338,9.433
				c-5.555,5.799-10.416,9.593-12.58,9.394c-0.726,0-0.944-0.165-0.968-0.193c-0.034-0.03-0.098-0.091-0.104-0.459
				c-0.144-1.553,3.897-9.496,8.437-16.856c4.522-7.472,9.604-15.011,11.467-17.289l1.885-2.302l-2.954,0.134l-6.737,0.279
				c-1.795-0.022-3.239,1.071-4.13,2.669c-0.578,0.926-1.197,2.121-2.104,3.726c-0.124-1.797-0.631-3.49-1.689-4.847
				c-1.213-1.587-3.21-2.566-5.631-2.544c-10.328,0.051-21.857,7.497-29.647,17.062c-0.714,0.887-1.187,1.422-1.535,1.82
				c-0.102,0.108-0.197,0.216-0.318,0.317c-0.983,1.097-2.698,3.473-6.766,7.693c-8.171,8.136-15.185,10.834-18.444,10.792
				c-0.102,0-0.178,0.006-0.231,0c-2.024-0.077-2.997-0.501-3.584-1.235c-0.617-0.747-1.031-2.282-1.026-4.942
				c0-1.132,0.169-2.321,0.388-3.557c4.32-0.959,11.068-2.929,17.006-5.93c6.283-3.221,11.979-7.597,12.078-13.883
				c-0.016-4.648-3.52-8.129-8.331-8.135c-8.223,0.043-17.347,5.797-25.219,13.855c-0.585,0.591-1.884,1.976-3.066,3.303
				c-0.483,0.561-0.934,1.087-1.321,1.569c-0.242,0.17-0.452,0.368-0.587,0.551c-0.436,0.5-1.007,1.256-2.12,2.589
				c-5.07,6.097-12.26,13.029-18.919,16.833l22.935-38.332l-2.547,0.2l-9.894,0.766l-0.321,0.707
				c-0.952,2.071-2.026,4.114-3.096,6.017c-0.007-2.623-0.829-4.762-2.424-6.146c-1.61-1.384-3.773-1.908-6.19-1.914
				c-8.996,0.084-21.032,7.571-27.617,14.438c-2.288,2.58-3.439,3.697-4.077,4.535c-0.161,0.128-0.312,0.266-0.4,0.404
				c-0.489,0.54-1.126,1.357-2.45,2.904c-4.356,5.271-11.16,12.526-19.042,17.197l24.23-39.727l-2.63,0.254l-9.715,0.917
				l-0.321,0.661c-2.112,4.293-8.809,13.46-15.97,21.378c-7.038,7.963-15.136,14.656-18.358,14.44c-0.305,0-0.502-0.038-0.572-0.061
				v0.004c-0.03-0.102-0.075-0.349-0.075-0.736c-0.158-1.642,3.089-6.28,6.51-11.188c3.379-5.01,6.925-10.671,6.968-16.298
				c-0.007-4.132-2.142-9.1-7.495-9.122c-3.916,0.043-8.764,2.64-16.844,11.782c-4.07,4.77-5.742,6.494-6.506,7.567
				c-0.314,0.362-0.734,0.883-1.512,1.794c-7.949,9.619-15.954,16.81-18.92,16.543c-0.727,0-0.941-0.171-0.973-0.201
				c-0.024-0.023-0.09-0.089-0.103-0.456c-0.144-1.549,3.901-9.497,8.436-16.852c4.533-7.476,9.609-15.011,11.469-17.287l1.885-2.31
				l-2.95,0.134l-6.74,0.279c-1.793-0.015-3.245,1.071-4.128,2.674c-0.577,0.922-1.197,2.116-2.102,3.721
				c-0.13-1.797-0.641-3.49-1.695-4.847c-1.215-1.587-3.205-2.566-5.626-2.538c-10.325,0.041-21.86,7.491-29.651,17.057
				c-0.313,0.394-0.57,0.697-0.801,0.975l-0.073-0.104c-13.281,9.432-27.493,14.68-40.032,17.566
				c16.225-7.649,29.25-20.915,38.312-38.364c9.098-17.529,16.242-29.112,20.909-34.915c2.205-2.76,4.969-4.438,7.262-5.65
				c1.153-0.606,2.174-1.085,2.996-1.575c0.75-0.508,1.686-0.933,1.822-2.399c-0.006-0.329-0.026-0.871-0.509-1.383
				c-0.063-0.062-0.129-0.118-0.194-0.163c2.36,0.199,4.968,0.322,8.083,0.328c7.806,0,13.554-2.048,17.36-4.273
				c1.903-1.109,3.316-2.25,4.29-3.229c0.949-1.109,1.504-1.424,1.696-2.757c-0.092-0.542,0.059-1.678-1.736-2.035
				c-4.408,0.041-8.911,2.26-24.415,2.266h-33.116c-44.038,0.026-59.344,17.749-59.415,31.081
				c0.018,9.667,8.489,16.897,21.804,16.909c11.88-0.012,21.424-7.397,27.98-14.841c3.285-3.729,5.837-7.511,7.589-10.493
				c1.75-3.129,2.663-4.827,2.795-6.17c-0.22-1.414-0.906-1.858-2.163-2.038c-1.361,0.325-0.854,0.501-1.11,0.58
				c-1.394,1.837-15.198,26.073-39.583,26.054c-7.683-0.104-12.375-4-12.436-10.565c-0.012-5.748,3.91-11.784,11.113-16.41
				c7.181-4.628,17.54-7.772,29.944-7.764c23.309-0.009,29.821,2.136,39.288,3.158c-1.494,0.406-3.511,1.541-6.461,3.326
				c-3.419,2.15-7.625,5.246-11.562,9.074c-14.208,13.796-22.287,32.798-33.391,48.15c-11.138,15.356-24.922,27.085-51.015,27.135
				c-20.721-0.05-34.573-9.944-34.599-23.609c-0.008-8.107,4.577-15.248,11.397-20.431c6.808-5.175,15.801-8.275,24.186-8.27
				c14.986,0.125,21.773,6.342,21.835,15.381c-0.014,6.757-3.318,11.835-8.267,15.387c-4.936,3.533-11.508,5.391-17.643,5.386
				c-5.36,0-9.13-1.092-11.802-2.17c-2.777-1.065-3.956-2.2-5.732-2.367c-0.612-0.043-1.318,0.482-1.493,0.957
				c-0.223,0.459-0.239,0.834-0.247,1.227c0.113,1.035,0.52,1.173,0.824,1.514c2.187,1.855,9.503,5.14,17.894,5.205
				c14.588-0.027,31.251-8.888,31.345-25.415c-0.101-16.026-16.307-22.56-28.822-22.584c-19.953,0.025-38.839,14.803-38.923,33.631
				c0.028,19.283,17.84,30.311,39.302,30.498c1.298,0.072,3.132,0.14,5.425,0.14c13.381-0.013,42.192-2.306,68.592-19.714
				c-0.21,1.481-0.349,2.967-0.349,4.52c0.008,3.311,0.416,6.714,1.904,9.475c1.451,2.783,4.275,4.793,8.259,4.747
				c5.393-0.173,11.548-5.985,15.95-10.354c0.074,3.612,0.661,6.099,1.914,7.851c1.328,1.855,3.41,2.509,5.458,2.509
				c0.041,0,0.079-0.006,0.113-0.006c4.749-0.141,9.955-4.789,16.525-11.604c1.642-1.792,3.571-3.963,5.11-5.724
				c0.768-0.882,1.434-1.662,1.916-2.256c0.197-0.231,0.343-0.423,0.48-0.6c0.971-1.138,2.678-3.405,7.8-8.854
				c5.242-5.646,9.455-8.75,12.094-8.646c0.673,0,0.875,0.152,0.875,0.152c0,0.006,0.038-0.006,0.049,0.355
				c0.131,2.22-3.061,6.668-6.488,11.433c-3.375,4.849-6.945,10.293-6.978,16.051c0.04,4.312,2.671,9.241,7.349,9.405
				c4.364-0.13,9.697-4.463,14.948-9.274c1.867-1.755,3.678-3.582,5.317-5.331l-7.504,14.461
				c-22.506,13.774-38.874,23.951-39.193,35.654c-0.006,2.798,0.824,5.094,2.332,6.664c1.507,1.565,3.605,2.313,5.831,2.313h0.032
				c9.66-0.265,22.719-14.354,37.291-39.995c8.056-4.224,14.919-8.758,22.764-17.531c1.199-1.364,2.71-3.101,3.937-4.565
				c0.2-0.242,0.375-0.461,0.552-0.682c-0.272,1.233-0.597,2.766-0.607,4.916c0.005,3.808,0.523,7.112,2.081,9.636
				c1.55,2.553,4.326,4.06,7.938,4.021c5.545-0.132,11.253-4.663,15.751-9.443c-2.262,4.604-3.793,7.894-5.129,10.857
				c-23.104,13.386-37.247,21.693-37.479,34.234c-0.015,2.673,0.841,4.892,2.385,6.38c1.54,1.485,3.651,2.173,5.924,2.173h0.03
				c7.508-0.143,15.348-8.071,22.433-17.081c6.815-8.808,12.657-18.809,15.418-24.404c6.139-2.339,14.967-9.069,22.344-17.322
				c0.754-0.878,1.373-1.568,1.937-2.188c0,0.158-0.021,0.29-0.021,0.447c0.015,7.563,3.497,16.269,12.2,16.347h0.213
				c6.988-0.125,12.872-3.086,19.967-9.704c2.157-1.951,4.593-4.563,6.522-6.773c0.024-0.026,0.046-0.058,0.069-0.083
				c-0.062,0.77-0.104,1.542-0.104,2.339c0.009,3.3,0.42,6.714,1.905,9.475c1.447,2.783,4.277,4.793,8.267,4.747
				c5.381-0.17,11.54-5.981,15.943-10.354c0.075,3.612,0.662,6.094,1.916,7.851c1.332,1.855,3.4,2.503,5.455,2.503
				c0.037,0,0.078,0,0.113,0c3.869-0.112,8.056-3.248,13.021-8.08c0.985,5.019,4.47,8.075,8.596,8.08
				c4.24-0.018,7.432-2.588,10.804-5.407c1.215-1.073,4.329-4.073,7.354-8.002c2.289-2.924,4.436-5.771,6.622-8.6
				c-2.661,5.055-4.591,10.251-4.63,14.874c0.005,1.491,0.115,3.172,1.001,4.655c0.868,1.491,2.624,2.479,4.938,2.479
				c0.05,0,0.1,0,0.151,0c2.579-0.303,4.416-2.897,6.869-5.649c2.285-2.773,4.446-5.812,5.273-6.922
				c1.154-1.498,2.733-3.649,4.591-6.118c-1.637,3.182-2.696,6.073-2.754,8.295c0.006,1.891,0.233,4.308,1.229,6.432
				c0.94,2.118,2.984,4.002,5.983,3.963c4.631-0.089,9.021-3.805,16.231-11.163c1.574-1.655,3.645-3.929,5.345-5.86
				c0.843-0.962,1.594-1.84,2.155-2.512c0.032-0.044,0.05-0.07,0.084-0.111c0.009-0.004,0.024-0.015,0.03-0.022
				c0.936-0.945,2.255-2.974,8.267-9.367c5.24-5.646,9.455-8.747,12.093-8.648c0.676,0,0.872,0.155,0.872,0.161
				c0,0,0.046-0.013,0.057,0.354c0.126,2.217-3.066,6.663-6.488,11.429c-3.372,4.84-6.945,10.291-6.984,16.049
				c0.042,4.312,2.68,9.245,7.354,9.41c4.357-0.135,9.696-4.468,14.943-9.286c1.873-1.748,3.675-3.573,5.31-5.318l-7.501,14.464
				c-22.51,13.769-38.866,23.947-39.193,35.646c-0.007,2.798,0.829,5.094,2.339,6.659c1.503,1.568,3.597,2.322,5.834,2.322h0.025
				c9.661-0.273,22.72-14.354,37.295-40.006c8.054-4.217,14.914-8.749,22.758-17.524c1.106-1.249,2.456-2.809,3.625-4.2
				c-0.008,0.209-0.023,0.396-0.023,0.616c0.004,3.55,0.602,7.631,2.449,10.986c1.804,3.342,5.103,5.923,9.873,5.923
				c0.026,0,0.059,0,0.08,0c7.573-0.005,14.661-4.312,23.564-14.176c1.475-1.554,2.854-3.084,3.883-4.301
				c0.507-0.606,0.929-1.135,1.238-1.559c0.31-0.556,0.544-0.478,0.704-1.556C686.167,125.64,685.333,124.438,684.018,124.438z
				 M436.631,118.164c3.957-4.381,8.711-7.644,11.645-7.644c0.037,0,0.076,0.003,0.113,0.003c1.421,0.206,1.295,0.063,1.485,1.356
				c0.275,8.177-12.034,15.882-20.894,17.753C430.372,126.201,433.278,121.805,436.631,118.164z M271.848,132.803
				c-5.215,6.313-11.786,11.188-14.885,11.045c-1.299-0.043-1.777-0.703-1.912-3.205c-0.037-4.567,3.155-12.376,7.771-18.769
				c4.574-6.465,10.625-11.441,15.47-11.351c2.125,0.057,2.914,1.304,3.032,3.774C281.389,118.846,277.164,126.566,271.848,132.803z
				 M301.311,188.046c-1.671-0.104-2.764-0.793-2.891-4.054c-0.211-5.854,7.382-14.107,30.061-29.044
				C316.059,179.683,306.749,188.286,301.311,188.046z M373.001,173.541c-5.268,8.028-11.834,14.7-15.974,14.505
				c-1.621-0.037-1.974-0.373-2.281-0.823c-0.322-0.495-0.484-1.654-0.471-3.23c-0.32-10.479,17.92-21.836,28.468-28.073
				C380.705,160.582,377.12,167.414,373.001,173.541z M390.899,131.896c-5.145,6.624-11.789,12.073-16.051,11.951
				c-1.512-0.03-2.236-1.052-2.333-3.063c-0.039-4.819,3.487-12.654,8.42-19.016c4.905-6.431,11.281-11.33,16.089-11.245
				c2.589,0.164,2.657,0.89,2.889,3.907C400,117.575,396.108,125.384,390.899,131.896z M482.357,132.807
				c-5.209,6.31-11.785,11.185-14.878,11.035c-1.297-0.037-1.784-0.702-1.919-3.196c-0.034-4.567,3.153-12.379,7.766-18.771
				c4.578-6.467,10.629-11.437,15.476-11.351c2.12,0.063,2.911,1.304,3.034,3.77C491.898,118.84,487.675,126.562,482.357,132.807z
				 M581.147,188.046c-1.669-0.106-2.754-0.786-2.893-4.054c-0.201-5.86,7.385-14.109,30.065-29.048
				C595.902,179.683,586.585,188.28,581.147,188.046z"/>
		</g>
	</g>
    <g>
		<g>
			<polyline fill="#2B2B85" points="761.524,31.138 761.524,65.211 693.389,65.211 693.389,31.138 761.524,31.138 			"/>
            <path fill="#E2000F" d="M693.482,65.211h5.022l25.634-12.796l-1-2.004L693.482,65.211 M693.409,31.138h-0.02v2.501l31.481,15.713
				l1.007-2.005L693.409,31.138"/>
            <path fill="#E2000F" d="M761.524,31.138H756.5l-25.637,12.796l1,2.008L761.524,31.138 M761.51,65.211h0.021v-2.497l-31.396-15.72
				l-1.007,2.008L761.51,65.211"/>
            <polyline fill="#FFFFFF" points="761.524,31.138 761.524,31.138 738.765,42.498 733.739,42.498 756.5,31.138 754.095,31.138
				733.143,41.598 733.143,31.138 721.696,31.138 721.696,41.431 701.082,31.138 693.409,31.138 716.163,42.498 711.14,42.498
				693.389,33.639 693.389,34.919 708.577,42.498 693.389,42.498 693.389,53.829 708.449,53.829 693.389,61.35 693.389,65.211
				693.482,65.211 716.282,53.829 721.301,53.829 698.504,65.211 700.91,65.211 721.696,54.838 721.696,65.211 733.143,65.211
				733.143,54.838 753.924,65.211 761.51,65.211 738.797,53.829 743.822,53.829 761.532,62.714 761.532,61.435 746.379,53.829
				761.524,53.829 761.524,42.498 746.598,42.498 761.524,35 761.524,31.138 			"/>
            <polyline fill="#E2000F" points="761.524,44.768 730.828,44.768 730.828,31.138 724.015,31.138 724.015,44.768 693.389,44.768
				693.389,51.58 724.015,51.58 724.015,65.211 730.828,65.211 730.828,51.58 761.524,51.58 761.524,44.768 			"/>
		</g>
        <g>
			<rect x="727.759" y="31.138" fill="#0080C8" width="33.765" height="34.074"/>
            <rect x="727.759" y="48.175" fill="#FFDC00" width="33.765" height="17.037"/>
		</g>
	</g>
</g>
</svg>
