<?xml version="1.0" standalone="no"?>
<!DOCTYPE svg PUBLIC "-//W3C//DTD SVG 20010904//EN"
 "http://www.w3.org/TR/2001/REC-SVG-20010904/DTD/svg10.dtd">
<svg version="1.0" xmlns="http://www.w3.org/2000/svg"
 width="700.000000pt" height="700.000000pt" viewBox="0 0 700.000000 700.000000"
 preserveAspectRatio="xMidYMid meet">
<metadata>
Created by potrace 1.11, written by Peter Selinger 2001-2013
</metadata>
<g transform="translate(0.000000,700.000000) scale(0.100000,-0.100000)"
fill="#000000" stroke="none">
<path d="M3343 5282 l-193 -2 -2 -698 -3 -697 -1572 -3 -1573 -2 0 -350 0
-350 1575 0 1575 0 0 -700 0 -700 190 0 190 0 0 875 0 875 1735 0 1735 0 0
878 0 877 -1732 0 c-953 0 -1820 -1 -1925 -3z"/>
<path d="M1 5153 l0 -128 910 -452 909 -453 253 1 252 0 -1155 579 c-635 318
-1158 579 -1162 579 -5 1 -8 -56 -7 -126z"/>
<path d="M1850 4755 c575 -288 1048 -524 1053 -524 4 -1 7 235 7 524 l0 525
-1052 -1 -1053 0 1045 -524z"/>
<path d="M0 4505 l0 -385 776 0 776 0 -771 385 c-425 212 -774 385 -777 385
-2 0 -4 -173 -4 -385z"/>
<path d="M0 2565 l0 -385 763 381 c419 210 764 383 766 385 2 2 -341 4 -762 4
l-767 0 0 -385z"/>
<path d="M1175 2367 l-1160 -582 252 -3 252 -2 1168 584 1168 585 -260 0 -260
0 -1160 -582z"/>
<path d="M1840 2316 l-1065 -531 1064 -3 c585 -1 1066 -1 1068 1 2 2 2 242 1
534 l-3 529 -1065 -530z"/>
</g>
</svg>
